<svg id="Layer_1" height="512" viewBox="0 0 512 512" width="512" xmlns="http://www.w3.org/2000/svg" data-name="Layer 1"><path d="m100 0h312a100.193 100.193 0 0 1 100 100v312a100.193 100.193 0 0 1 -100 100h-312a100.193 100.193 0 0 1 -100-100v-312a100.193 100.193 0 0 1 100-100zm5.991 256.014a18.739 18.739 0 0 0 18.737 18.738h217.247l-73.219 73.219a18.751 18.751 0 0 0 26.5 26.532l105.254-105.251a18.752 18.752 0 0 0 0-26.5l-105.25-105.252a18.751 18.751 0 0 0 -26.5 26.533l73.219 73.219h-217.251a18.744 18.744 0 0 0 -18.737 18.762z" fill-rule="evenodd"/></svg>